<svg width="662" height="222" viewBox="0 0 662 222" fill="none" xmlns="http://www.w3.org/2000/svg">
<g clip-path="url(#clip0_2_2)" filter="url(#filter0_d_2_2)">
<path d="M165.138 90.0054C165.139 123.792 165.139 157.08 165.139 190.683C121.012 190.683 77.297 190.683 33.0007 190.683C33.0007 188.797 33.0007 187.021 33.0007 185.245C33.0007 131.932 33.0569 78.6182 32.8945 25.3056C32.8815 21.0195 34.2217 19.3826 38.2538 18.1464C79.0035 5.65313 120.055 4.64272 161.46 14.3467C162.569 14.6066 163.643 15.0144 165.122 15.4743C165.122 23.9816 165.172 32.4509 165.058 40.9179C165.044 41.9349 164.345 43.118 163.627 43.9237C154.108 54.5993 144.529 65.2212 134.734 76.1125C130.073 72.1579 126.07 73.6867 122.253 77.2138C121.036 78.3378 119.671 79.33 118.27 80.2173C116.313 81.456 114.905 81.6 113.652 78.8802C110.429 71.8863 107.106 70.9191 100.315 74.8754C95.4323 77.7201 90.8762 81.1285 85.9762 83.9404C80.9215 86.8412 79.0954 85.6451 79.0418 79.8924C78.9763 72.8624 75.6542 70.1242 68.8982 71.6923C60.1202 73.7297 53.2362 78.8363 47.4054 85.4648C46.4993 86.495 46.2537 88.1064 45.7026 89.449C46.1262 89.7422 46.5498 90.0355 46.9734 90.3287C48.089 89.3223 49.109 88.1769 50.3364 87.3332C56.1658 83.3259 61.7268 78.7395 68.0168 75.6481C73.3917 73.0065 75.3679 74.977 75.4115 81.0657C75.4625 88.1915 79.9647 91.0636 86.39 87.6097C91.7988 84.7023 96.7783 81.008 102.081 77.8889C107.182 74.8888 108.026 75.2738 110.564 80.6969C112.549 84.9385 115.354 85.9893 119.397 83.6124C121.818 82.1893 123.804 80.018 126.239 78.6289C127.67 77.8126 129.6 77.8704 131.306 77.535C131.498 78.0689 131.691 78.6029 131.884 79.1368C128.716 82.7088 125.621 86.3484 122.366 89.8396C114.294 98.4989 108.261 108.248 105.281 119.846C104.82 121.642 102.688 123.009 100.828 125.149C97.605 111.984 95.659 111.461 85.9523 119.755C83.8937 121.515 81.6059 123.006 79.4237 124.62C79.0093 124.35 78.5949 124.08 78.1804 123.81C78.4115 121.971 78.666 120.133 78.8689 118.291C79.3907 113.55 76.9894 110.538 72.3801 111.106C62.2286 112.355 53.9165 117.382 46.9829 124.749C46.4643 125.3 46.6123 126.479 46.4504 127.365C47.5856 127.14 48.8994 127.207 49.827 126.641C55.7294 123.041 61.2512 118.662 67.4738 115.783C73.9055 112.808 75.1178 114.24 75.0059 121.123C74.9726 123.17 75.7348 126.21 77.1525 127.029C78.6182 127.875 81.7044 127.172 83.411 126.09C87.3804 123.572 90.9464 120.418 94.625 117.561C95.3922 118.4 95.7543 118.609 95.7896 118.862C97.2121 129.107 98.2037 129.474 107.475 124.329C112.083 121.771 117.231 120.16 121.758 117.484C133.763 110.387 141.601 98.8902 150.948 88.9976C155.464 84.2177 159.796 79.2641 165.138 73.3656C165.138 79.6688 165.138 84.5878 165.138 90.0054ZM47.0845 45.5145C46.59 47.0844 46.0956 48.6543 45.6011 50.2241C46.1679 50.4873 46.7347 50.7504 47.3015 51.0136C48.2634 49.8024 49.1511 48.5221 50.2009 47.3927C53.5735 43.7639 56.6228 39.6912 60.5049 36.7126C66.4072 32.1839 68.6804 33.4609 69.1041 40.6735C69.4291 46.2065 72.5172 48.176 77.4209 45.7949C79.6512 44.712 81.689 43.2313 83.8082 41.9215C88.1837 39.2169 92.3974 36.1938 96.9702 33.88C102.17 31.249 103.957 32.4188 105.031 38.1987C106.292 44.9865 109.413 46.7412 115.538 43.7025C119.696 41.6397 123.534 38.9391 127.659 36.8002C132.299 34.3937 133.452 35.0381 134.398 40.2046C135.035 43.682 136.95 46.2468 140.454 44.9675C145.035 43.2949 149.4 41.5022 154.385 42.5005C154.467 42.517 154.664 41.9582 154.868 41.5457C149.715 34.397 143.99 40.7407 138.67 41.5434C136.771 30.937 133.468 29.426 124.317 34.4976C121.122 36.2682 118.055 38.2664 114.888 40.0893C111.352 42.125 109.333 41.7746 108.518 37.0525C107.104 28.8594 102.935 26.7777 95.3329 30.6272C89.7285 33.4651 84.6203 37.2744 79.2373 40.5631C77.4902 41.6305 75.5735 42.4202 73.3774 43.5149C73.144 41.9427 72.8102 41.105 72.9386 40.3454C74.5911 30.5739 66.0179 28.1199 58.9582 33.3335C54.6361 36.5253 51.2805 41.0259 47.0845 45.5145Z" fill="#7FD958"/>
<path d="M4.77914 103C4.77902 72.0702 4.77902 41.6404 4.77902 10.7964C13.8067 10.8461 21.1111 14.0992 27.8905 18.7224C28.733 19.2969 29.183 20.997 29.184 22.1762C29.2332 77.786 29.2135 133.396 29.1856 189.006C29.1853 189.473 28.9678 189.94 28.7806 190.693C21.0425 190.693 13.2969 190.693 4.77928 190.693C4.77928 161.604 4.77928 132.552 4.77914 103Z" fill="#7ED957"/>
<path d="M487.796 121.987C487.796 109.186 487.79 96.8826 487.798 84.579C487.803 76.8404 488.284 75.9965 496.184 75.5222C502.114 75.1661 508.161 75.2511 514.046 76.0004C522.942 77.1331 527.592 81.6674 528.369 88.7493C529.167 96.0193 525.777 100.817 516.79 104.615C518.441 105.253 519.743 105.693 520.991 106.25C526.937 108.904 530.701 113.258 530.824 119.973C530.953 126.958 528.504 132.859 521.8 135.862C511.976 140.264 501.615 139.277 491.411 137.661C489.973 137.433 488.317 134.388 487.968 132.432C487.392 129.209 487.802 125.809 487.796 121.987ZM499.386 121.384C499.386 123.825 499.386 126.267 499.386 128.999C506.308 129.692 513.287 131.203 517.548 124.969C519.26 122.464 519.431 116.877 517.752 114.477C513.388 108.24 506.174 110.077 499.386 109.879C499.386 113.852 499.386 117.143 499.386 121.384ZM514.221 86.0289C509.465 85.324 504.71 84.6192 499.676 83.8731C499.676 90.4279 499.676 95.5073 499.676 101.255C503.593 100.831 507.252 100.801 510.725 99.9837C517.861 98.3059 519.592 92.2965 514.221 86.0289Z" fill="#050505"/>
<path d="M236.429 88.105C236.434 85.6251 236.393 83.6267 236.453 81.6313C236.568 77.7953 238.484 75.9016 242.423 75.9163C246.34 75.9309 248.31 77.72 248.312 81.6419C248.315 88.1851 248.313 94.7282 249.49 101.627C254.953 94.8438 260.527 88.1451 265.837 81.2433C268.725 77.4901 272.192 75.4198 276.932 75.9915C278.419 76.1709 279.837 76.9339 281.286 77.4298C280.736 78.7386 280.452 80.2638 279.592 81.321C273.821 88.4199 267.922 95.4143 262.08 102.456C261.25 103.457 260.51 104.533 259.541 105.823C266.414 114.539 273.238 123.106 279.931 131.773C280.968 133.114 281.405 134.918 282.119 136.509C280.334 137.01 278.575 137.787 276.758 137.957C272.534 138.354 269.56 136.179 267.103 132.902C261.265 125.117 255.315 117.416 248.321 109.986C248.321 116.85 248.249 123.715 248.349 130.578C248.408 134.663 247.777 137.972 242.641 138.024C238.009 138.072 236.455 136.312 236.441 130.527C236.406 116.547 236.429 102.568 236.429 88.105Z" fill="#080808"/>
<path d="M624.252 95.0084C632.696 91.154 639.787 92.6852 646.253 99.4C646.729 98.1999 646.839 96.8144 647.512 96.4398C649.385 95.3967 651.637 93.934 653.459 94.2507C654.904 94.5018 656.965 97.1197 656.989 98.7134C657.193 112.192 657.506 125.706 656.748 139.151C656.138 149.958 649.232 156.239 638.243 157.137C633.675 157.51 628.991 156.842 624.392 156.349C621.37 156.026 619.712 153.678 620.895 151.061C621.558 149.595 624.253 148.566 626.173 148.281C628.21 147.977 630.405 148.998 632.544 149.074C641.817 149.402 645.64 145.85 646.164 136.574C646.247 135.11 646.176 133.636 646.176 131.561C645.158 132.279 644.537 132.677 643.96 133.131C634.653 140.458 622.798 137.643 617.685 126.974C613.62 118.492 614.16 100.676 624.252 95.0084ZM641.969 126.552C646.292 121.53 647.54 112.766 644.69 107.051C642.807 103.277 639.7 101.352 635.481 101.51C631.187 101.671 628.002 103.922 627.142 108.031C626.346 111.831 625.905 115.98 626.568 119.754C627.975 127.752 633.787 130.337 641.969 126.552Z" fill="#050505"/>
<path d="M157.765 55.7663C168.136 44.3005 178.266 33.0954 188.362 21.9277C191.782 25.0034 194.943 27.8457 198.516 31.0591C194.002 36.1049 189.198 41.5095 184.358 46.881C168.998 63.9254 153.659 80.9893 138.196 97.9395C136.828 99.4383 133.784 101.519 132.943 101.004C130.001 99.202 127.5 96.5304 125.284 93.8183C124.846 93.281 126.116 90.8321 127.109 89.7204C137.187 78.435 147.37 67.2442 157.765 55.7663Z" fill="#80DA5A"/>
<path d="M50.0179 210.012C44.4493 210.524 39.3577 208.991 34.332 212.601C32.2008 214.131 27.3331 211.922 23.7282 211.301C22.0121 211.006 20.3529 210.139 18.6468 210.072C14.1116 209.895 9.56503 210.012 5.02299 210.012C4.91585 209.449 4.80872 208.887 4.70157 208.324C5.67241 207.926 6.63286 207.218 7.61591 207.185C11.61 207.051 15.6113 207.149 19.6096 207.117C27.9929 207.05 31.0289 203.311 29.303 194.749C30.5364 194.607 31.738 194.468 33.1295 194.307C33.1943 195.057 33.3265 195.52 33.2579 195.951C32.0484 203.548 34.8754 207.097 42.4418 207.104C82.9268 207.14 123.412 207.054 163.897 207.216C168.453 207.234 168.968 205.28 168.96 201.524C168.868 158.873 168.952 116.222 168.819 73.5713C168.806 69.4531 170.185 66.6939 173.894 64.3431C173.894 112.952 173.894 161.15 173.894 210.012C132.69 210.012 91.6022 210.012 50.0179 210.012Z" fill="#82DA5D"/>
<path d="M442.633 95.1305C448.697 98.5627 449.585 104.124 449.739 109.922C449.924 116.911 449.848 123.907 450.009 130.897C450.079 133.948 450.678 137.321 446.486 137.902C442.553 138.447 440.186 136.405 439.782 133.137C435.622 134.953 431.456 137.496 426.941 138.571C420.092 140.203 413.892 136.744 411.701 131.142C409.154 124.633 411.253 117.287 417.58 113.829C421.39 111.747 425.939 110.901 430.246 109.888C432.77 109.295 435.474 109.464 438.06 109.293C438.322 103.33 436.74 101.206 431.27 101.262C427.504 101.3 423.762 102.626 419.983 102.793C418.043 102.879 414.888 102.217 414.313 100.963C413.048 98.2045 414.786 95.8879 417.83 94.9918C425.975 92.5941 434.129 91.7577 442.633 95.1305ZM428.515 117.567C427.442 117.982 426.312 118.293 425.305 118.832C422.021 120.589 420.21 123.307 421.472 127.002C422.815 130.93 426.149 131.261 429.681 130.485C436.14 129.066 439.25 124.163 438.071 116.808C435.184 116.968 432.244 117.13 428.515 117.567Z" fill="#070707"/>
<path d="M300.898 125.904C305.869 131.728 311.93 131.384 318.107 129.778C321.048 129.013 323.957 128.086 324.99 131.943C325.978 135.63 323.137 137.352 320.226 137.533C314.173 137.909 307.828 138.72 302.063 137.377C293.981 135.493 289.227 129.168 288.108 120.902C286.855 111.644 287.776 102.638 296.249 96.7365C303.692 91.5522 311.931 91.5774 319.946 95.4461C326.497 98.6081 331.015 108.112 329.893 115.301C329.311 119.034 326.703 119.971 323.357 119.954C315.379 119.913 307.401 119.941 298.611 119.941C299.413 122.115 300.052 123.845 300.898 125.904ZM319.104 109.968C317.525 103.16 313.899 100.325 307.682 101.037C302.241 101.661 299.252 105.458 299.209 112.218C305.304 112.218 311.405 112.254 317.504 112.159C318.06 112.15 318.604 111.309 319.104 109.968Z" fill="#080808"/>
<path d="M565.105 115.11C566.625 98.7021 577.435 90.2526 592.327 93.3918C604.528 95.9636 611.267 107.369 608.729 121.152C606.485 133.339 596.399 140.447 583.805 138.716C571.927 137.084 565.554 129.195 565.105 115.11ZM589.123 130.159C591.53 128.335 595.492 126.877 596.028 124.611C597.238 119.482 597.488 113.852 596.754 108.619C596.066 103.717 591.576 101.121 586.782 101.349C581.905 101.58 578.361 104.13 577.327 108.785C576.484 112.578 576.271 116.721 576.808 120.565C577.803 127.675 581.019 130.05 589.123 130.159Z" fill="#070707"/>
<path d="M71 197.182C59.5242 197.182 48.5483 197.182 37.5724 197.182C37.4673 196.66 37.3622 196.138 37.2571 195.616C39.4955 195.169 41.733 194.337 43.9723 194.332C82.1073 194.252 120.243 194.275 158.378 194.275C160.492 194.275 162.607 194.275 164.949 194.275C164.949 197.707 164.949 200.477 164.949 203.197C154.447 205.514 40.4407 204.149 36.3185 200.819C48.227 200.819 59.043 200.874 69.8584 200.804C80.5729 200.735 91.3178 201.117 102.025 199.433C97.2472 196.111 91.9953 197.479 86.9846 197.237C81.8342 196.987 76.6624 197.181 71 197.182Z" fill="#8ADD67"/>
<path d="M383.831 80.2581C385.062 85.2381 385.974 89.9757 387.031 95.4728C389.575 95.4728 392.837 95.435 396.098 95.4844C398.875 95.5265 401.633 96.5323 400.871 99.6427C400.456 101.334 397.807 103.191 395.863 103.627C392.883 104.295 389.643 103.802 386.118 103.802C386.118 111.075 385.995 118.015 386.17 124.948C386.258 128.459 388.231 130.459 391.979 130.23C393.307 130.149 394.844 129.62 395.914 130.109C397.495 130.832 399.699 132.154 399.873 133.457C400.057 134.838 398.246 137.759 397.189 137.816C391.976 138.095 386.564 138.371 381.534 137.25C376.564 136.142 375.018 131.385 374.91 126.63C374.743 119.316 374.866 111.994 374.866 104.621C371.731 102.709 365.51 105.635 365.709 99.3603C365.887 93.7728 371.42 96.408 374.741 94.7163C374.741 92.0688 374.719 89.2858 374.745 86.5033C374.805 80.0037 377.055 78.3467 383.831 80.2581Z" fill="#070707"/>
<path d="M548.006 138.012C543.615 137.86 542.096 135.54 542.098 131.821C542.108 114.71 542.12 97.5998 542.09 80.4893C542.083 76.453 543.883 74.1793 548.013 74.1636C552.183 74.1478 553.915 76.4832 553.909 80.4958C553.882 97.6064 553.894 114.717 553.901 131.828C553.902 135.531 552.429 137.892 548.006 138.012Z" fill="#080808"/>
<path d="M353.238 101.246C353.238 111.34 353.18 120.962 353.266 130.582C353.303 134.625 352.794 137.994 347.628 138.004C343.259 138.013 341.788 136.292 341.77 130.818C341.739 120.865 341.813 110.912 341.736 100.959C341.706 97.0782 342.302 94.005 347.167 93.8408C352.16 93.6723 353.51 96.454 353.238 101.246Z" fill="black"/>
<path d="M217.126 9.86304C214.499 13.0917 211.907 15.888 209.581 18.8898C206.156 23.3095 203.371 20.1969 200.956 18.0108C198.566 15.8477 195.145 13.4143 199.291 9.6001C201.476 7.58972 203.34 5.23233 205.361 3.04218C207.851 0.344054 210.76 -0.949036 214.2 1.07337C217.441 2.97791 218.688 5.81915 217.126 9.86304Z" fill="#82DA5D"/>
<path d="M196.411 38.3977C199.715 34.3948 202.861 30.7941 209.213 31.6402C208.631 33.0477 208.354 34.8008 207.365 35.9324C201.577 42.5576 195.745 49.1568 189.622 55.4672C188.376 56.7513 185.819 56.7637 183.867 57.3624C184.223 55.3497 183.948 52.8536 185.051 51.4142C188.477 46.9468 192.425 42.8808 196.411 38.3977Z" fill="#82DA5D"/>
<path d="M121.704 106.262C123.444 107.502 124.928 108.496 127.261 110.059C122.135 110.879 120.329 118.922 114.058 114.164C110.966 111.818 111.976 108.861 117.793 102.006C119.021 103.353 120.234 104.684 121.704 106.262Z" fill="#82DA5D"/>
<path d="M351.63 75.4686C354.454 81.2964 352.721 84.4918 347.276 84.3728C343.979 84.3008 341.842 82.9055 341.795 79.4006C341.748 75.9331 343.827 74.2638 347.089 74.2124C348.501 74.19 349.923 74.8392 351.63 75.4686Z" fill="#080808"/>
<path d="M205.859 25.0798C207.572 27.8693 206.291 28.5274 203.92 28.3099C198.721 27.833 191.441 21.3994 190.518 16.2776C190.358 15.3914 191.132 14.3368 191.475 13.36C192.393 13.879 193.424 14.266 194.209 14.9394C198.029 18.215 201.783 21.5673 205.859 25.0798Z" fill="#8ADD67"/>
<path d="M6.06923 194.377C12.8171 194.872 19.4627 192.805 25.5551 195.72C25.5446 196.252 25.534 196.784 25.5235 197.316C18.9552 197.316 12.3867 197.324 5.82081 197.197C5.75439 197.195 5.72271 195.402 6.06923 194.377Z" fill="#8ADD67"/>
<path d="M174.168 23.2272C174.083 28.4761 175.435 33.7641 169.305 36.8085C169.305 31.1739 169.305 25.7134 169.305 19.9386C171.837 19.0709 174.329 18.288 174.168 23.2272Z" fill="#82DA5D"/>
<path d="M14.0303 200.819C18.0949 200.819 21.6793 200.819 25.7801 200.819C21.7781 205.008 6.64444 205.117 4.39563 200.819C7.68312 200.819 10.6166 200.819 14.0303 200.819Z" fill="#8ADD67"/>
<path d="M123.996 99.0416C126.57 101.236 128.956 103.133 131.342 105.031C131.27 105.432 131.198 105.832 131.126 106.233C129.076 105.663 126.723 105.544 125.046 104.418C122.433 102.664 120.165 100.28 120.871 95.2365C122.338 96.9884 123.074 97.8663 123.996 99.0416Z" fill="#8ADD67"/>
<path d="M47.2877 45.2266C51.2805 41.0259 54.6361 36.5253 58.9582 33.3335C66.0179 28.1199 74.5911 30.5739 72.9386 40.3454C72.8102 41.105 73.144 41.9427 73.3774 43.5149C75.5735 42.4202 77.4902 41.6305 79.2374 40.5631C84.6203 37.2744 89.7285 33.4651 95.3329 30.6272C102.935 26.7777 107.104 28.8594 108.518 37.0525C109.334 41.7746 111.352 42.125 114.888 40.0893C118.055 38.2664 121.123 36.2682 124.317 34.4976C133.468 29.426 136.771 30.937 138.67 41.5434C143.99 40.7407 149.715 34.397 154.868 41.5457C154.664 41.9582 154.467 42.517 154.385 42.5005C149.4 41.5022 145.035 43.2949 140.454 44.9675C136.95 46.2468 135.035 43.682 134.398 40.2046C133.452 35.0381 132.299 34.3937 127.659 36.8002C123.534 38.9391 119.696 41.6397 115.538 43.7025C109.413 46.7412 106.292 44.9865 105.031 38.1987C103.957 32.4188 102.17 31.249 96.9702 33.88C92.3974 36.1938 88.1837 39.2169 83.8082 41.9215C81.689 43.2313 79.6512 44.712 77.4209 45.7949C72.5172 48.176 69.4291 46.2065 69.1041 40.6734C68.6804 33.4609 66.4072 32.1839 60.5049 36.7126C56.6228 39.6912 53.5736 43.7639 50.2009 47.3927C49.1511 48.5221 48.2634 49.8024 47.3015 51.0136C46.7347 50.7504 46.1679 50.4873 45.6011 50.2241C46.0956 48.6543 46.5901 47.0844 47.2877 45.2266Z" fill="#F5F5F5"/>
<path d="M499.386 120.908C499.386 117.143 499.386 113.852 499.386 109.879C506.174 110.077 513.388 108.24 517.752 114.477C519.431 116.877 519.26 122.464 517.548 124.969C513.287 131.203 506.308 129.692 499.386 128.999C499.386 126.267 499.386 123.825 499.386 120.908Z" fill="#F5F5F5"/>
<path d="M514.55 86.2289C519.592 92.2965 517.861 98.3059 510.725 99.9837C507.252 100.801 503.593 100.831 499.676 101.255C499.676 95.5073 499.676 90.4279 499.676 83.8731C504.71 84.6192 509.465 85.324 514.55 86.2289Z" fill="#F5F5F5"/>
<path d="M641.662 126.773C633.787 130.337 627.975 127.752 626.568 119.754C625.905 115.98 626.347 111.831 627.142 108.031C628.002 103.922 631.188 101.672 635.482 101.51C639.7 101.352 642.807 103.277 644.69 107.051C647.541 112.766 646.292 121.53 641.662 126.773Z" fill="#FAFAFA"/>
<path d="M428.91 117.43C432.244 117.13 435.184 116.968 438.071 116.808C439.25 124.163 436.14 129.066 429.681 130.485C426.149 131.261 422.815 130.93 421.472 127.002C420.21 123.307 422.021 120.589 425.305 118.832C426.312 118.293 427.442 117.982 428.91 117.43Z" fill="#F5F5F5"/>
<path d="M588.704 130.205C581.019 130.049 577.803 127.675 576.808 120.565C576.271 116.721 576.485 112.578 577.327 108.785C578.361 104.13 581.905 101.58 586.782 101.349C591.576 101.121 596.066 103.717 596.754 108.619C597.488 113.852 597.238 119.482 596.028 124.611C595.492 126.877 591.53 128.335 588.704 130.205Z" fill="#FAFAFA"/>
</g>
<defs>
<filter id="filter0_d_2_2" x="0" y="0" width="662" height="222" filterUnits="userSpaceOnUse" color-interpolation-filters="sRGB">
<feFlood flood-opacity="0" result="BackgroundImageFix"/>
<feColorMatrix in="SourceAlpha" type="matrix" values="0 0 0 0 0 0 0 0 0 0 0 0 0 0 0 0 0 0 127 0" result="hardAlpha"/>
<feOffset dy="4"/>
<feGaussianBlur stdDeviation="2"/>
<feComposite in2="hardAlpha" operator="out"/>
<feColorMatrix type="matrix" values="0 0 0 0 0 0 0 0 0 0 0 0 0 0 0 0 0 0 0.25 0"/>
<feBlend mode="normal" in2="BackgroundImageFix" result="effect1_dropShadow_2_2"/>
<feBlend mode="normal" in="SourceGraphic" in2="effect1_dropShadow_2_2" result="shape"/>
</filter>
<clipPath id="clip0_2_2">
<rect width="654" height="214" fill="white" transform="translate(4)"/>
</clipPath>
</defs>
</svg>
